<?xml version="1.0" encoding="utf-8"?>
<!-- Generator: Adobe Illustrator 24.1.0, SVG Export Plug-In . SVG Version: 6.00 Build 0)  -->
<svg version="1.1" xmlns="http://www.w3.org/2000/svg" xmlns:xlink="http://www.w3.org/1999/xlink" x="0px" y="0px"
	 viewBox="0 0 2400 559.24" style="enable-background:new 0 0 2400 559.24;" xml:space="preserve">
<style type="text/css">
	.st0{fill:url(#SVGID_1_);}
	.st1{fill:url(#SVGID_2_);}
	.st2{fill:url(#SVGID_3_);}
	.st3{fill:url(#SVGID_4_);}
	.st4{fill:url(#SVGID_5_);}
	.st5{fill:url(#SVGID_6_);}
	.st6{fill:url(#SVGID_7_);}
	.st7{fill:url(#SVGID_8_);}
	.st8{fill:url(#SVGID_9_);}
	.st9{fill:none;stroke:#FFFFFF;stroke-width:4;stroke-miterlimit:10;}
	.st10{fill:#FFFFFF;}
	.st11{clip-path:url(#SVGID_11_);}
	.st12{opacity:0.81;fill:url(#SVGID_12_);}
	.st13{fill:#056277;}
	.st14{opacity:0.76;}
	.st15{fill:none;stroke:#FFFFFF;stroke-miterlimit:10;}
	.st16{fill:none;}
	.st17{opacity:0.81;fill:url(#SVGID_13_);}
	.st18{fill:none;stroke:#FFFFFF;stroke-width:1.3432;stroke-miterlimit:10;}
	.st19{opacity:0.81;fill:url(#SVGID_14_);}
	.st20{clip-path:url(#SVGID_16_);}
	.st21{fill:none;stroke:#FFFFFF;stroke-width:0.8452;stroke-miterlimit:10;}
	.st22{opacity:0.76;fill:none;stroke:#FFFFFF;stroke-width:0.8452;stroke-miterlimit:10;}
	.st23{opacity:0.81;fill:url(#SVGID_17_);}
	.st24{clip-path:url(#SVGID_19_);}
	.st25{opacity:0.76;fill:none;stroke:#FFFFFF;stroke-miterlimit:10;}
	.st26{fill:#606060;}
	.st27{fill:none;stroke:#FF4F0A;stroke-width:10;stroke-miterlimit:10;}
	.st28{fill:#005161;}
	.st29{fill:#508B3B;}
	.st30{fill:#B21218;}
	.st31{fill:#222221;}
	.st32{fill:none;stroke:#FFFFFF;stroke-width:3.4226;stroke-miterlimit:10;}
	.st33{fill:none;stroke:#FFFFFF;stroke-width:1.4805;stroke-miterlimit:10;}
	.st34{fill:none;stroke:#056277;stroke-width:3.4166;stroke-miterlimit:10;}
	.st35{fill:none;stroke:#FFFFFF;stroke-width:2.145;stroke-miterlimit:10;}
	.st36{fill:none;stroke:#056277;stroke-width:4.95;stroke-miterlimit:10;}
	.st37{fill:none;stroke:#FFFFFF;stroke-width:1.573;stroke-miterlimit:10;}
	.st38{fill:none;stroke:#056277;stroke-width:3.63;stroke-miterlimit:10;}
	.st39{fill:none;stroke:#FFFFFF;stroke-width:1.3;stroke-miterlimit:10;}
	.st40{fill:none;stroke:#056277;stroke-width:3;stroke-miterlimit:10;}
	.st41{fill:#084A67;}
	.st42{fill:url(#SVGID_20_);}
	.st43{fill:#A1C6D2;}
	.st44{fill:#457EC3;}
	.st45{fill:#798D98;}
	.st46{fill:#01354F;}
	.st47{clip-path:url(#SVGID_22_);}
	.st48{fill:#1D1D1B;}
	.st49{fill:#027B35;}
	.st50{fill:#82C270;}
	.st51{fill:#4DA833;}
	.st52{fill:#007CC4;}
	.st53{fill:#2D92D0;}
	.st54{fill:#00619D;}
	.st55{opacity:0.85;fill:#FFFFFF;}
	.st56{opacity:0.65;fill:#FFFFFF;}
	.st57{opacity:0.35;fill:#FFFFFF;}
	.st58{fill:none;stroke:#C20E1A;stroke-width:4;stroke-miterlimit:10;}
	.st59{clip-path:url(#SVGID_24_);}
	.st60{fill:none;stroke:#FFFFFF;stroke-width:0.7313;stroke-miterlimit:10;}
	.st61{opacity:0.76;fill:none;stroke:#FFFFFF;stroke-width:0.7313;stroke-miterlimit:10;}
	.st62{fill:none;stroke:#FFFFFF;stroke-width:6.4185;stroke-miterlimit:10;}
	.st63{fill:none;stroke:#FFFFFF;stroke-width:2.7765;stroke-miterlimit:10;}
	.st64{fill:none;stroke:#056277;stroke-width:6.4073;stroke-miterlimit:10;}
	.st65{clip-path:url(#SVGID_26_);}
	.st66{fill:none;stroke:#FFFFFF;stroke-width:1.3715;stroke-miterlimit:10;}
	.st67{opacity:0.76;fill:none;stroke:#FFFFFF;stroke-width:1.3715;stroke-miterlimit:10;}
	.st68{fill:none;stroke:#FFFFFF;stroke-width:1.3459;stroke-miterlimit:10;}
	.st69{fill:none;stroke:#056277;stroke-width:3.106;stroke-miterlimit:10;}
	.st70{clip-path:url(#SVGID_28_);}
	.st71{fill:none;stroke:#FFFFFF;stroke-width:0.9654;stroke-miterlimit:10;}
	.st72{opacity:0.76;fill:none;stroke:#FFFFFF;stroke-width:0.9654;stroke-miterlimit:10;}
	.st73{display:none;}
	.st74{display:inline;opacity:0.52;}
	.st75{fill:none;stroke:#FF3CFF;stroke-width:0.5;stroke-miterlimit:10;}
</style>
<g id="GRAY_BG">
	<linearGradient id="SVGID_1_" gradientUnits="userSpaceOnUse" x1="1196.2233" y1="599.736" x2="1196.2233" y2="-17.622">
		<stop  offset="0" style="stop-color:#FFFFFF"/>
		<stop  offset="0.0152" style="stop-color:#FAFAFA"/>
		<stop  offset="0.0625" style="stop-color:#F0F0F0"/>
		<stop  offset="0.1224" style="stop-color:#EDEDED"/>
		<stop  offset="0.2712" style="stop-color:#E7E7E7"/>
		<stop  offset="1" style="stop-color:#C9C9C9"/>
	</linearGradient>
	<rect x="0" y="0" class="st0" width="2400" height="559.24"/>
</g>
<g id="LINES_BG">
</g>
<g id="Layer_1">
</g>
<g id="Type">
	<g>
		<g>
			<polyline class="st62" points="-173.69,164.72 1013.25,164.72 1128.1,68.25 2267.28,68.25 2507.57,-185.64 			"/>
		</g>
	</g>
	<g>
		<g>
			<polyline class="st62" points="907.16,224.61 1043.45,224.61 1158.3,128.14 2036.47,128.14 			"/>
			<g>
				<path class="st10" d="M908.37,248.74c-13.33,0-24.13-10.81-24.13-24.13c0-13.33,10.81-24.13,24.13-24.13
					c13.33,0,24.13,10.81,24.13,24.13C932.5,237.93,921.69,248.74,908.37,248.74z"/>
			</g>
			<g>
				<path class="st10" d="M2035.26,152.27c13.33,0,24.13-10.81,24.13-24.13c0-13.33-10.81-24.13-24.13-24.13
					c-13.33,0-24.13,10.81-24.13,24.13C2011.13,141.46,2021.94,152.27,2035.26,152.27z"/>
			</g>
		</g>
	</g>
	<g>
		<g>
			<polyline class="st62" points="-82.49,284.56 951,284.56 1031.07,371.6 2582.86,371.6 			"/>
		</g>
	</g>
	<g>
		<g>
			<line class="st62" x1="1096.65" y1="303.44" x2="2140.34" y2="303.44"/>
			<g>
				<path class="st10" d="M1097.86,327.57c-13.33,0-24.13-10.81-24.13-24.13c0-13.33,10.81-24.13,24.13-24.13
					c13.33,0,24.13,10.81,24.13,24.13C1121.99,316.76,1111.19,327.57,1097.86,327.57z"/>
			</g>
			<g>
				<path class="st10" d="M2139.13,327.57c13.33,0,24.13-10.81,24.13-24.13c0-13.33-10.81-24.13-24.13-24.13
					c-13.33,0-24.13,10.81-24.13,24.13C2115,316.76,2125.8,327.57,2139.13,327.57z"/>
			</g>
		</g>
	</g>
	<g>
		<g>
			<polyline class="st62" points="-198.09,338.63 202.56,338.63 258.53,401.56 794.08,401.56 			"/>
			<g>
				<circle class="st10" cx="792.87" cy="401.56" r="24.13"/>
			</g>
		</g>
	</g>
	<g>
		<g>
			<polyline class="st62" points="809.03,416.94 873.58,487.11 2566.36,487.11 			"/>
			<g>
				<path class="st10" d="M792.09,434.17c-9.02-9.81-8.39-25.08,1.42-34.1c9.81-9.02,25.08-8.39,34.1,1.42
					c9.02,9.81,8.39,25.08-1.42,34.1C816.38,444.61,801.11,443.98,792.09,434.17z"/>
			</g>
		</g>
	</g>
	<g>
		<circle class="st10" cx="793.72" cy="401.23" r="101.67"/>
		<path class="st13" d="M753.29,432.16h77.31c7.76,0,15.06-3.99,18.97-10.68c2.47-4.23,3.77-9.22,3.46-14.53
			c-0.69-11.9-9.68-21.95-21.43-23.92c-3.99-0.67-7.83-0.39-11.37,0.61c-4.77-11.42-16.04-19.45-29.19-19.45
			c-15.5,0-28.38,11.15-31.09,25.87c-2.07-0.44-4.25-0.58-6.49-0.36c-10.29,0.99-18.53,9.47-19.21,19.78
			C733.48,421.16,742.1,430.99,753.29,432.16z"/>
	</g>
	<g>
		<circle class="st10" cx="447.44" cy="284.45" r="101.67"/>
		<g>
			<rect x="400.93" y="227.63" class="st13" width="71.41" height="93.49"/>
			<g>
				<rect x="410.03" y="236.41" class="st13" width="75.69" height="97.76"/>
				<path class="st10" d="M483.58,238.55v93.49h-71.41v-93.49H483.58 M487.85,234.28h-4.27h-71.41h-4.27v4.27v93.49v4.27h4.27h71.41
					h4.27v-4.27v-93.49V234.28L487.85,234.28z"/>
			</g>
			<g>
				<rect x="422.02" y="248.08" class="st13" width="75.68" height="97.76"/>
				<path class="st10" d="M495.57,250.21v93.49h-71.41v-93.49H495.57 M499.84,245.94h-4.27h-71.41h-4.27v4.27v93.49v4.27h4.27h71.41
					h4.27v-4.27v-93.49V245.94L499.84,245.94z"/>
			</g>
			<g>
				<line class="st63" x1="436.33" y1="270.89" x2="471.4" y2="270.89"/>
				<line class="st63" x1="436.33" y1="282.11" x2="471.4" y2="282.11"/>
				<line class="st63" x1="436.33" y1="293.32" x2="471.4" y2="293.32"/>
				<line class="st63" x1="478" y1="270.89" x2="486" y2="270.89"/>
				<line class="st63" x1="478" y1="282.11" x2="486" y2="282.11"/>
				<line class="st63" x1="478" y1="293.32" x2="486" y2="293.32"/>
				<line class="st63" x1="436.33" y1="304.54" x2="471.4" y2="304.54"/>
				<line class="st63" x1="436.33" y1="315.75" x2="471.4" y2="315.75"/>
				<line class="st63" x1="436.33" y1="326.97" x2="471.4" y2="326.97"/>
			</g>
		</g>
	</g>
	<g>
		<circle class="st10" cx="676.35" cy="164.09" r="101.67"/>
		<polyline class="st64" points="634.92,122.21 634.92,204.43 717.78,204.43 		"/>
		<rect x="645.34" y="145.63" class="st13" width="16.94" height="48.71"/>
		<rect x="694.04" y="160.21" class="st13" width="16.94" height="34.12"/>
		<rect x="669.84" y="132.57" class="st13" width="16.94" height="61.77"/>
	</g>
	<g>
		<defs>
			<circle id="SVGID_25_" cx="1712.91" cy="275.85" r="226.9"/>
		</defs>
		<clipPath id="SVGID_2_">
			<use xlink:href="#SVGID_25_"  style="overflow:visible;"/>
		</clipPath>
		<g style="clip-path:url(#SVGID_2_);">
			<circle class="st13" cx="1712.91" cy="275.85" r="226.9"/>
			<g class="st14">
				<g>
					<polyline class="st66" points="1575.74,568.66 1689.28,520.07 1705.79,481.97 1679.46,412.82 1620.05,420.49 1595.77,413.09
						1595.77,384.95 1586.58,369.55 1589.55,358 1580.36,350.59 1578.29,325.12 1558.61,322.57 1553.11,306.24 1584.49,260.86
						1584.53,247.34 1576.17,223.07 1577.11,182.36 1594.04,143.34 1628.72,112.78 1663.62,97.91 					"/>
					<g>
						<path class="st10" d="M1664.63,100.29c1.31-0.56,1.92-2.07,1.36-3.38c-0.56-1.31-2.07-1.92-3.38-1.36
							c-1.31,0.56-1.92,2.07-1.36,3.38C1661.81,100.23,1663.32,100.84,1664.63,100.29z"/>
					</g>
				</g>
			</g>
			<g class="st14">
				<g>
					<polyline class="st66" points="1553.11,306.24 1574.94,306.18 1609.17,273.1 					"/>
					<g>
						<path class="st10" d="M1553.12,308.82c-1.42,0-2.58-1.15-2.59-2.57s1.15-2.58,2.57-2.59c1.42,0,2.58,1.15,2.59,2.57
							S1554.55,308.82,1553.12,308.82z"/>
					</g>
					<g>
						<path class="st10" d="M1610.97,274.96c1.02-0.99,1.05-2.62,0.06-3.65c-0.99-1.02-2.62-1.05-3.65-0.06
							c-1.02,0.99-1.05,2.62-0.06,3.65S1609.94,275.95,1610.97,274.96z"/>
					</g>
				</g>
			</g>
			<g class="st14">
				<g>
					<polyline class="st66" points="1556.56,316.97 1580.67,316.28 1611.32,285.82 					"/>
					<g>
						<path class="st10" d="M1556.64,319.55c-1.42,0.04-2.61-1.08-2.65-2.5c-0.04-1.42,1.08-2.61,2.5-2.65s2.61,1.08,2.65,2.5
							C1559.18,318.32,1558.06,319.51,1556.64,319.55z"/>
					</g>
					<g>
						<path class="st10" d="M1613.14,287.65c1.01-1,1.02-2.64,0.01-3.65c-1-1.01-2.64-1.02-3.65-0.01s-1.02,2.64-0.01,3.65
							C1610.5,288.65,1612.13,288.65,1613.14,287.65z"/>
					</g>
				</g>
			</g>
			<g class="st14">
				<g>
					<polyline class="st66" points="1559.05,297.15 1569.95,297.28 1603.17,263.9 					"/>
					<g>
						<path class="st10" d="M1559.02,299.73c-1.42-0.02-2.56-1.19-2.55-2.61c0.02-1.42,1.19-2.56,2.61-2.55s2.56,1.19,2.55,2.61
							C1561.61,298.6,1560.44,299.74,1559.02,299.73z"/>
					</g>
					<g>
						<path class="st10" d="M1605,265.71c1-1.01,1-2.64-0.01-3.65s-2.64-1-3.65,0.01c-1,1.01-1,2.64,0.01,3.65
							C1602.36,266.73,1604,266.72,1605,265.71z"/>
					</g>
				</g>
			</g>
			<g class="st14">
				<g>
					<polyline class="st66" points="1583.99,254.95 1610.75,228.65 1611.37,208.07 1629.37,190.2 					"/>
					<g>
						<path class="st10" d="M1585.8,256.79c-1.02,1-2.65,0.98-3.65-0.03c-1-1.02-0.98-2.65,0.03-3.65c1.02-1,2.65-0.98,3.65,0.03
							C1586.83,254.16,1586.82,255.79,1585.8,256.79z"/>
					</g>
					<g>
						<path class="st10" d="M1631.18,192.03c1.01-1,1.02-2.64,0.01-3.65c-1-1.01-2.64-1.02-3.65-0.01c-1.01,1-1.02,2.64-0.01,3.65
							C1628.54,193.02,1630.17,193.03,1631.18,192.03z"/>
					</g>
				</g>
			</g>
			<g class="st14">
				<g>
					<polyline class="st66" points="1583.7,247.52 1605.92,226.13 1606.52,204.9 1622.29,189.41 					"/>
					<g>
						<path class="st10" d="M1585.49,249.38c-1.03,0.99-2.66,0.96-3.65-0.07c-0.99-1.03-0.96-2.66,0.07-3.65
							c1.03-0.99,2.66-0.96,3.65,0.07C1586.55,246.76,1586.52,248.39,1585.49,249.38z"/>
					</g>
					<g>
						<path class="st10" d="M1624.1,191.25c1.02-1,1.03-2.63,0.03-3.65c-1-1.02-2.63-1.03-3.65-0.03s-1.03,2.63-0.03,3.65
							C1621.45,192.23,1623.08,192.25,1624.1,191.25z"/>
					</g>
				</g>
			</g>
			<g class="st14">
				<g>
					<line class="st66" x1="1581.95" y1="240.49" x2="1597.83" y2="225.28"/>
					<g>
						<path class="st10" d="M1583.74,242.35c-1.03,0.98-2.66,0.95-3.65-0.08s-0.95-2.66,0.08-3.65c1.03-0.98,2.66-0.95,3.65,0.08
							S1584.76,241.37,1583.74,242.35z"/>
					</g>
					<g>
						<path class="st10" d="M1599.62,227.14c1.03-0.98,1.06-2.62,0.08-3.65c-0.98-1.03-2.62-1.06-3.65-0.08
							c-1.03,0.98-1.06,2.62-0.08,3.65C1596.96,228.09,1598.59,228.13,1599.62,227.14z"/>
					</g>
				</g>
			</g>
			<g class="st14">
				<g>
					<line class="st66" x1="1583.77" y1="263.36" x2="1593.42" y2="254.08"/>
					<g>
						<path class="st10" d="M1585.56,265.22c-1.03,0.99-2.66,0.96-3.65-0.07c-0.99-1.03-0.96-2.66,0.07-3.65s2.66-0.96,3.65,0.07
							C1586.62,262.6,1586.59,264.23,1585.56,265.22z"/>
					</g>
					<g>
						<path class="st10" d="M1595.21,255.93c1.03-0.99,1.06-2.62,0.07-3.65c-0.99-1.03-2.62-1.06-3.65-0.07
							c-1.03,0.99-1.06,2.62-0.07,3.65C1592.55,256.89,1594.18,256.92,1595.21,255.93z"/>
					</g>
				</g>
			</g>
			<g class="st14">
				<g>
					<line class="st66" x1="1579.01" y1="232.37" x2="1594.9" y2="217.16"/>
					<g>
						<path class="st10" d="M1580.8,234.23c-1.03,0.98-2.66,0.95-3.65-0.08c-0.98-1.03-0.95-2.66,0.08-3.65
							c1.03-0.98,2.66-0.95,3.65,0.08C1581.86,231.61,1581.83,233.24,1580.8,234.23z"/>
					</g>
					<g>
						<path class="st10" d="M1596.68,219.02c1.03-0.98,1.06-2.62,0.08-3.65s-2.62-1.06-3.65-0.08s-1.06,2.62-0.08,3.65
							C1594.02,219.97,1595.65,220,1596.68,219.02z"/>
					</g>
				</g>
			</g>
			<g class="st14">
				<g>
					<line class="st66" x1="1576.57" y1="212.09" x2="1592.45" y2="196.87"/>
					<g>
						<path class="st10" d="M1578.35,213.95c-1.03,0.98-2.66,0.95-3.65-0.08c-0.98-1.03-0.95-2.66,0.08-3.65
							c1.03-0.98,2.66-0.95,3.65,0.08S1579.38,212.96,1578.35,213.95z"/>
					</g>
					<g>
						<path class="st10" d="M1594.23,198.74c1.03-0.98,1.06-2.62,0.08-3.65c-0.98-1.03-2.62-1.06-3.65-0.08
							c-1.03,0.98-1.06,2.62-0.08,3.65C1591.57,199.69,1593.21,199.72,1594.23,198.74z"/>
					</g>
				</g>
			</g>
			<g class="st14">
				<g>
					<line class="st66" x1="1576.22" y1="223.12" x2="1600.4" y2="199.28"/>
					<g>
						<path class="st10" d="M1578.03,224.95c-1.01,1-2.65,0.99-3.65-0.03c-1-1.01-0.99-2.65,0.03-3.65c1.01-1,2.65-0.99,3.65,0.03
							S1579.05,223.95,1578.03,224.95z"/>
					</g>
					<g>
						<path class="st10" d="M1602.21,201.11c1.01-1,1.03-2.63,0.03-3.65c-1-1.01-2.63-1.02-3.65-0.03c-1.01,1-1.02,2.63-0.03,3.65
							S1601.2,202.11,1602.21,201.11z"/>
					</g>
				</g>
			</g>
			<g class="st14">
				<g>
					<polyline class="st66" points="1577.11,182.36 1657.37,182.36 1697.72,142.18 					"/>
					<g>
						<path class="st10" d="M1577.11,184.94c-1.42,0-2.58-1.15-2.58-2.58c0-1.42,1.15-2.58,2.58-2.58c1.42,0,2.58,1.15,2.58,2.58
							C1579.68,183.78,1578.53,184.94,1577.11,184.94z"/>
					</g>
					<g>
						<path class="st10" d="M1699.54,144.01c1.01-1,1.01-2.64,0.01-3.65c-1-1.01-2.64-1.01-3.65-0.01c-1.01,1-1.01,2.64-0.01,3.65
							C1696.9,145.01,1698.53,145.02,1699.54,144.01z"/>
					</g>
				</g>
			</g>
			<g class="st14">
				<g>
					<polyline class="st66" points="1580.32,175.67 1654.58,175.67 1679.56,151.66 					"/>
					<g>
						<path class="st10" d="M1580.32,178.24c-1.42,0-2.58-1.15-2.58-2.58s1.15-2.58,2.58-2.58c1.42,0,2.58,1.15,2.58,2.58
							S1581.75,178.24,1580.32,178.24z"/>
					</g>
					<g>
						<path class="st10" d="M1681.35,153.52c1.03-0.99,1.06-2.62,0.07-3.65c-0.99-1.03-2.62-1.06-3.65-0.07s-1.06,2.62-0.07,3.65
							C1678.69,154.47,1680.32,154.5,1681.35,153.52z"/>
					</g>
				</g>
			</g>
			<g class="st14">
				<g>
					<polyline class="st66" points="1583.81,167.88 1651.51,167.88 1685.83,134.6 					"/>
					<g>
						<path class="st10" d="M1583.81,170.46c-1.42,0-2.58-1.15-2.58-2.58c0-1.42,1.15-2.58,2.58-2.58s2.58,1.15,2.58,2.58
							C1586.39,169.3,1585.24,170.46,1583.81,170.46z"/>
					</g>
					<g>
						<path class="st10" d="M1687.63,136.45c1.02-0.99,1.05-2.62,0.06-3.65c-0.99-1.02-2.62-1.05-3.65-0.06
							c-1.02,0.99-1.05,2.62-0.06,3.65C1684.97,137.42,1686.6,137.44,1687.63,136.45z"/>
					</g>
				</g>
			</g>
			<g class="st14">
				<g>
					<polyline class="st66" points="1587.18,159.43 1647.62,159.43 1665.53,142.36 					"/>
					<g>
						<path class="st10" d="M1587.18,162.01c-1.42,0-2.58-1.15-2.58-2.58s1.15-2.58,2.58-2.58c1.42,0,2.58,1.15,2.58,2.58
							S1588.61,162.01,1587.18,162.01z"/>
					</g>
					<g>
						<path class="st10" d="M1667.31,144.23c1.03-0.98,1.07-2.61,0.09-3.65s-2.61-1.07-3.65-0.09c-1.03,0.98-1.07,2.61-0.09,3.65
							C1664.65,145.17,1666.28,145.21,1667.31,144.23z"/>
					</g>
				</g>
			</g>
			<g class="st14">
				<g>
					<polyline class="st66" points="1594.04,143.34 1638.81,143.34 1656.73,126.28 					"/>
					<g>
						<circle class="st10" cx="1594.04" cy="143.34" r="2.58"/>
					</g>
					<g>
						<path class="st10" d="M1658.51,128.14c1.03-0.98,1.07-2.61,0.09-3.65s-2.61-1.07-3.65-0.09c-1.03,0.98-1.07,2.61-0.09,3.65
							S1657.47,129.12,1658.51,128.14z"/>
					</g>
				</g>
			</g>
			<g class="st14">
				<g>
					<polyline class="st66" points="1590.31,151.65 1643.28,151.65 1652.37,142.98 					"/>
					<g>
						<path class="st10" d="M1590.31,154.23c-1.42,0-2.58-1.15-2.58-2.58c0-1.42,1.15-2.58,2.58-2.58s2.58,1.15,2.58,2.58
							C1592.89,153.08,1591.73,154.23,1590.31,154.23z"/>
					</g>
					<g>
						<path class="st10" d="M1654.14,144.85c1.03-0.98,1.07-2.62,0.09-3.65c-0.98-1.03-2.62-1.07-3.65-0.08
							c-1.03,0.98-1.07,2.62-0.09,3.65S1653.12,145.83,1654.14,144.85z"/>
					</g>
				</g>
			</g>
			<g class="st14">
				<g>
					<polyline class="st66" points="1633.25,136.04 1651.03,118.28 1705.59,118.28 					"/>
					<g>
						<path class="st10" d="M1635.07,137.86c-1.01,1.01-2.64,1.01-3.65,0c-1.01-1.01-1.01-2.64,0-3.65c1.01-1.01,2.64-1.01,3.65,0
							C1636.08,135.22,1636.08,136.86,1635.07,137.86z"/>
					</g>
					<g>
						<path class="st10" d="M1705.59,120.86c1.42,0,2.58-1.15,2.58-2.58s-1.15-2.58-2.58-2.58c-1.42,0-2.58,1.15-2.58,2.58
							S1704.17,120.86,1705.59,120.86z"/>
					</g>
				</g>
			</g>
			<g class="st14">
				<g>
					<line class="st66" x1="1619.6" y1="134.17" x2="1637.65" y2="117.24"/>
					<g>
						<path class="st10" d="M1621.37,136.05c-1.04,0.97-2.67,0.92-3.64-0.12c-0.97-1.04-0.92-2.67,0.12-3.64s2.67-0.92,3.64,0.12
							S1622.41,135.07,1621.37,136.05z"/>
					</g>
					<g>
						<path class="st10" d="M1639.42,119.13c1.04-0.97,1.09-2.61,0.12-3.64s-2.61-1.09-3.64-0.12c-1.04,0.97-1.09,2.61-0.12,3.64
							S1638.38,120.1,1639.42,119.13z"/>
					</g>
				</g>
			</g>
			<g class="st14">
				<g>
					<line class="st66" x1="1646.51" y1="105.54" x2="1791.73" y2="105.54"/>
					<g>
						<circle class="st10" cx="1646.51" cy="105.54" r="2.58"/>
					</g>
					<g>
						<circle class="st10" cx="1791.73" cy="105.54" r="2.58"/>
					</g>
				</g>
			</g>
			<line class="st67" x1="1665.94" y1="97.91" x2="1772.22" y2="97.91"/>
			<g class="st14">
				<g>
					<polyline class="st66" points="1720.67,118.46 1773.69,118.46 1819.39,139.4 					"/>
					<g>
						<path class="st10" d="M1720.67,121.04c-1.42,0-2.58-1.15-2.58-2.58c0-1.42,1.15-2.58,2.58-2.58s2.58,1.15,2.58,2.58
							C1723.25,119.88,1722.09,121.04,1720.67,121.04z"/>
					</g>
					<g>
						<path class="st10" d="M1818.31,141.74c1.29,0.59,2.82,0.02,3.42-1.27c0.59-1.29,0.02-2.83-1.27-3.42
							c-1.29-0.59-2.82-0.02-3.42,1.27C1816.45,139.62,1817.02,141.15,1818.31,141.74z"/>
					</g>
				</g>
			</g>
			<g class="st14">
				<g>
					<polyline class="st66" points="1636.81,262.14 1620.11,244.4 1620.11,219.21 1649,190.63 					"/>
					<g>
						<path class="st10" d="M1638.69,260.37c0.98,1.04,0.93,2.67-0.11,3.64c-1.04,0.98-2.67,0.93-3.64-0.11
							c-0.98-1.04-0.93-2.67,0.11-3.64C1636.08,259.29,1637.71,259.33,1638.69,260.37z"/>
					</g>
					<g>
						<path class="st10" d="M1650.81,192.46c1.01-1,1.02-2.63,0.02-3.65s-2.63-1.02-3.65-0.02c-1.01,1-1.02,2.63-0.02,3.65
							C1648.17,193.45,1649.8,193.46,1650.81,192.46z"/>
					</g>
				</g>
			</g>
			<g class="st14">
				<g>
					<polyline class="st66" points="1646.95,261.26 1629.23,241.58 1629.23,223 1640.8,211.83 					"/>
					<g>
						<path class="st10" d="M1648.87,259.53c0.95,1.06,0.87,2.69-0.19,3.64c-1.06,0.95-2.69,0.87-3.64-0.19
							c-0.95-1.06-0.87-2.69,0.19-3.64C1646.28,258.39,1647.91,258.48,1648.87,259.53z"/>
					</g>
					<g>
						<path class="st10" d="M1642.59,213.69c1.02-0.99,1.05-2.62,0.06-3.65s-2.62-1.05-3.65-0.06s-1.05,2.62-0.06,3.65
							S1641.57,214.68,1642.59,213.69z"/>
					</g>
				</g>
			</g>
			<g class="st14">
				<g>
					<polyline class="st66" points="1627.19,273.29 1768.27,273.29 1828.55,354.01 					"/>
					<g>
						<path class="st10" d="M1627.19,275.87c-1.42,0-2.58-1.15-2.58-2.58s1.15-2.58,2.58-2.58c1.42,0,2.58,1.15,2.58,2.58
							S1628.62,275.87,1627.19,275.87z"/>
					</g>
					<g>
						<path class="st10" d="M1826.48,355.56c0.85,1.14,2.47,1.38,3.61,0.52c1.14-0.85,1.38-2.47,0.52-3.61
							c-0.85-1.14-2.47-1.38-3.61-0.52C1825.87,352.8,1825.63,354.42,1826.48,355.56z"/>
					</g>
				</g>
			</g>
			<g class="st14">
				<g>
					<line class="st66" x1="1774.05" y1="303.42" x2="1822.87" y2="367.99"/>
					<g>
						<path class="st10" d="M1771.99,304.98c-0.86-1.14-0.63-2.75,0.5-3.61c1.14-0.86,2.75-0.63,3.61,0.5
							c0.86,1.14,0.63,2.75-0.5,3.61C1774.47,306.34,1772.85,306.11,1771.99,304.98z"/>
					</g>
					<g>
						<path class="st10" d="M1820.82,369.54c0.86,1.14,2.48,1.36,3.61,0.5c1.14-0.86,1.36-2.48,0.5-3.61
							c-0.86-1.14-2.48-1.36-3.61-0.5C1820.18,366.79,1819.96,368.41,1820.82,369.54z"/>
					</g>
				</g>
			</g>
			<g class="st14">
				<g>
					<line class="st66" x1="1648.51" y1="282.24" x2="1717.95" y2="282.24"/>
					<g>
						<circle class="st10" cx="1648.51" cy="282.24" r="2.58"/>
					</g>
					<g>
						<circle class="st10" cx="1717.95" cy="282.24" r="2.58"/>
					</g>
				</g>
			</g>
			<g class="st14">
				<g>
					<polyline class="st66" points="1621.89,291.47 1727.37,291.47 1732.9,285.87 					"/>
					<g>
						<path class="st10" d="M1621.89,294.05c-1.42,0-2.58-1.15-2.58-2.58s1.15-2.58,2.58-2.58c1.42,0,2.58,1.15,2.58,2.58
							S1623.31,294.05,1621.89,294.05z"/>
					</g>
					<g>
						<path class="st10" d="M1734.73,287.68c1-1.01,0.99-2.65-0.02-3.65c-1.01-1-2.65-0.99-3.65,0.02c-1,1.01-0.99,2.65,0.02,3.65
							C1732.1,288.7,1733.73,288.69,1734.73,287.68z"/>
					</g>
				</g>
			</g>
			<g class="st14">
				<g>
					<polyline class="st66" points="1662.94,260.94 1775.48,260.94 1835.17,341.07 					"/>
					<g>
						<path class="st10" d="M1662.94,263.52c-1.42,0-2.58-1.15-2.58-2.58s1.15-2.58,2.58-2.58c1.42,0,2.58,1.15,2.58,2.58
							S1664.36,263.52,1662.94,263.52z"/>
					</g>
					<g>
						<path class="st10" d="M1833.1,342.61c0.85,1.14,2.47,1.38,3.61,0.53c1.14-0.85,1.38-2.47,0.53-3.61
							c-0.85-1.14-2.47-1.38-3.61-0.53C1832.49,339.86,1832.25,341.47,1833.1,342.61z"/>
					</g>
				</g>
			</g>
			<g class="st14">
				<g>
					<polyline class="st66" points="1683.15,250.01 1782.44,250.01 1840.67,326.67 					"/>
					<g>
						<path class="st10" d="M1683.15,252.59c-1.42,0-2.58-1.15-2.58-2.58s1.15-2.58,2.58-2.58c1.42,0,2.58,1.15,2.58,2.58
							S1684.57,252.59,1683.15,252.59z"/>
					</g>
					<g>
						<path class="st10" d="M1838.62,328.23c0.86,1.13,2.48,1.35,3.61,0.49c1.13-0.86,1.35-2.48,0.49-3.61
							c-0.86-1.13-2.48-1.35-3.61-0.49C1837.98,325.48,1837.76,327.09,1838.62,328.23z"/>
					</g>
				</g>
			</g>
			<g class="st14">
				<g>
					<polyline class="st66" points="1845.8,314.4 1789.15,239.51 1658.85,239.51 1644.48,222.99 					"/>
					<g>
						<path class="st10" d="M1847.85,312.84c0.86,1.14,0.63,2.75-0.5,3.61c-1.14,0.86-2.75,0.63-3.61-0.5
							c-0.86-1.14-0.63-2.75,0.5-3.61C1845.38,311.49,1847,311.71,1847.85,312.84z"/>
					</g>
					<g>
						<path class="st10" d="M1646.43,221.29c-0.93-1.07-2.56-1.19-3.64-0.25s-1.19,2.56-0.25,3.64s2.56,1.19,3.64,0.25
							S1647.36,222.37,1646.43,221.29z"/>
					</g>
				</g>
			</g>
			<g class="st14">
				<g>
					<polyline class="st66" points="1646.31,206.56 1658.14,194.84 1677.31,195.06 1688.16,207.38 					"/>
					<g>
						<path class="st10" d="M1648.12,208.39c-1.01,1-2.64,0.99-3.65-0.02s-0.99-2.64,0.02-3.65c1.01-1,2.64-0.99,3.65,0.02
							C1649.14,205.76,1649.14,207.39,1648.12,208.39z"/>
					</g>
					<g>
						<path class="st10" d="M1686.23,209.08c0.94,1.07,2.57,1.17,3.64,0.23c1.07-0.94,1.17-2.57,0.23-3.64
							c-0.94-1.07-2.57-1.17-3.64-0.23S1685.29,208.01,1686.23,209.08z"/>
					</g>
				</g>
			</g>
			<g class="st14">
				<g>
					<polyline class="st66" points="1664.57,188.35 1682.89,188.73 1701.75,210.02 					"/>
					<g>
						<path class="st10" d="M1664.52,190.93c-1.42-0.03-2.55-1.21-2.52-2.63s1.21-2.55,2.63-2.52c1.42,0.03,2.55,1.21,2.52,2.63
							C1667.12,189.83,1665.94,190.96,1664.52,190.93z"/>
					</g>
					<g>
						<path class="st10" d="M1699.82,211.73c0.94,1.07,2.57,1.16,3.64,0.22c1.07-0.94,1.16-2.57,0.22-3.64
							c-0.94-1.07-2.57-1.16-3.64-0.22S1698.88,210.67,1699.82,211.73z"/>
					</g>
				</g>
			</g>
			<g class="st14">
				<g>
					<polyline class="st66" points="1654.16,213.3 1667.54,228.46 1797.15,228.46 1829.53,271.93 					"/>
					<g>
						<path class="st10" d="M1652.23,215.01c-0.94-1.07-0.84-2.7,0.23-3.64s2.7-0.84,3.64,0.23s0.84,2.7-0.23,3.64
							S1653.17,216.08,1652.23,215.01z"/>
					</g>
					<g>
						<path class="st10" d="M1827.47,273.47c0.85,1.14,2.47,1.38,3.61,0.53c1.14-0.85,1.38-2.47,0.53-3.61
							c-0.85-1.14-2.47-1.38-3.61-0.53S1826.62,272.33,1827.47,273.47z"/>
					</g>
				</g>
			</g>
			<g class="st14">
				<g>
					<polyline class="st66" points="1578.37,332.87 1716.63,332.87 1776.79,416.11 					"/>
					<g>
						<path class="st10" d="M1578.37,335.45c-1.42,0-2.58-1.15-2.58-2.58c0-1.42,1.15-2.58,2.58-2.58c1.42,0,2.58,1.15,2.58,2.58
							C1580.94,334.29,1579.79,335.45,1578.37,335.45z"/>
					</g>
					<g>
						<path class="st10" d="M1774.7,417.63c0.83,1.15,2.45,1.41,3.6,0.58s1.41-2.45,0.58-3.6c-0.83-1.15-2.45-1.41-3.6-0.58
							C1774.13,414.86,1773.87,416.47,1774.7,417.63z"/>
					</g>
				</g>
			</g>
			<g class="st14">
				<g>
					<polyline class="st66" points="1580.2,339.94 1711.47,339.94 1770.49,423.19 					"/>
					<g>
						<path class="st10" d="M1580.2,342.52c-1.42,0-2.58-1.15-2.58-2.58s1.15-2.58,2.58-2.58c1.42,0,2.58,1.15,2.58,2.58
							S1581.62,342.52,1580.2,342.52z"/>
					</g>
					<g>
						<path class="st10" d="M1768.38,424.68c0.82,1.16,2.43,1.44,3.59,0.61c1.16-0.82,1.44-2.43,0.61-3.59
							c-0.82-1.16-2.43-1.44-3.59-0.61C1767.83,421.91,1767.56,423.52,1768.38,424.68z"/>
					</g>
				</g>
			</g>
			<g class="st14">
				<g>
					<line class="st66" x1="1774.71" y1="434.33" x2="1774.71" y2="473.39"/>
					<g>
						<path class="st10" d="M1772.13,434.33c0-1.42,1.15-2.58,2.58-2.58c1.42,0,2.58,1.15,2.58,2.58c0,1.42-1.15,2.58-2.58,2.58
							C1773.29,436.91,1772.13,435.76,1772.13,434.33z"/>
					</g>
					<g>
						<path class="st10" d="M1772.13,473.39c0,1.42,1.15,2.58,2.58,2.58c1.42,0,2.58-1.15,2.58-2.58s-1.15-2.58-2.58-2.58
							C1773.29,470.81,1772.13,471.96,1772.13,473.39z"/>
					</g>
				</g>
			</g>
			<g class="st14">
				<g>
					<line class="st66" x1="1782.34" y1="426.01" x2="1782.34" y2="488.33"/>
					<g>
						<path class="st10" d="M1779.77,426.01c0-1.42,1.15-2.58,2.58-2.58s2.58,1.15,2.58,2.58c0,1.42-1.15,2.58-2.58,2.58
							S1779.77,427.43,1779.77,426.01z"/>
					</g>
					<g>
						<circle class="st10" cx="1782.34" cy="488.33" r="2.58"/>
					</g>
				</g>
			</g>
			<g class="st14">
				<g>
					<line class="st66" x1="1589.55" y1="358" x2="1599.2" y2="348.97"/>
					<g>
						<path class="st10" d="M1591.31,359.88c-1.04,0.97-2.67,0.92-3.64-0.12c-0.97-1.04-0.92-2.67,0.12-3.64s2.67-0.92,3.64,0.12
							C1592.4,357.28,1592.35,358.91,1591.31,359.88z"/>
					</g>
					<g>
						<path class="st10" d="M1600.96,350.85c1.04-0.97,1.09-2.6,0.12-3.64c-0.97-1.04-2.6-1.09-3.64-0.12s-1.09,2.6-0.12,3.64
							C1598.29,351.77,1599.92,351.82,1600.96,350.85z"/>
					</g>
				</g>
			</g>
			<g class="st14">
				<g>
					<line class="st66" x1="1590.27" y1="377.44" x2="1606.61" y2="360.93"/>
					<g>
						<path class="st10" d="M1592.1,379.25c-1,1.01-2.63,1.02-3.65,0.02c-1.01-1-1.02-2.63-0.02-3.65c1-1.01,2.63-1.02,3.65-0.02
							C1593.1,376.6,1593.11,378.24,1592.1,379.25z"/>
					</g>
					<g>
						<path class="st10" d="M1608.44,362.74c1-1.01,0.99-2.64-0.02-3.65c-1.01-1-2.65-0.99-3.65,0.02c-1,1.01-0.99,2.64,0.02,3.65
							S1607.44,363.75,1608.44,362.74z"/>
					</g>
				</g>
			</g>
			<g class="st14">
				<g>
					<line class="st66" x1="1587.15" y1="370.3" x2="1612.5" y2="345.5"/>
					<g>
						<path class="st10" d="M1588.95,372.15c-1.02,1-2.65,0.98-3.65-0.04s-0.98-2.65,0.04-3.65c1.02-1,2.65-0.98,3.65,0.04
							S1589.97,371.15,1588.95,372.15z"/>
					</g>
					<g>
						<path class="st10" d="M1614.3,347.34c1.02-1,1.04-2.63,0.04-3.65s-2.63-1.04-3.65-0.04c-1.02,1-1.04,2.63-0.04,3.65
							S1613.28,348.34,1614.3,347.34z"/>
					</g>
				</g>
			</g>
			<g class="st14">
				<g>
					<line class="st66" x1="1581.47" y1="352.46" x2="1588.28" y2="346.24"/>
					<g>
						<path class="st10" d="M1583.21,354.36c-1.05,0.96-2.68,0.89-3.64-0.16c-0.96-1.05-0.89-2.68,0.16-3.64
							c1.05-0.96,2.68-0.89,3.64,0.16C1584.33,351.77,1584.26,353.4,1583.21,354.36z"/>
					</g>
					<g>
						<path class="st10" d="M1590.02,348.14c1.05-0.96,1.12-2.59,0.16-3.64c-0.96-1.05-2.59-1.12-3.64-0.16
							c-1.05,0.96-1.12,2.59-0.16,3.64C1587.34,349.03,1588.97,349.1,1590.02,348.14z"/>
					</g>
				</g>
			</g>
			<g class="st14">
				<g>
					<line class="st66" x1="1595.77" y1="384.95" x2="1631.81" y2="384.95"/>
					<g>
						<path class="st10" d="M1595.77,387.53c-1.42,0-2.58-1.15-2.58-2.58s1.15-2.58,2.58-2.58c1.42,0,2.58,1.15,2.58,2.58
							S1597.19,387.53,1595.77,387.53z"/>
					</g>
					<g>
						<circle class="st10" cx="1631.81" cy="384.95" r="2.58"/>
					</g>
				</g>
			</g>
			<g class="st14">
				<g>
					<line class="st66" x1="1595.77" y1="393.97" x2="1619.24" y2="393.97"/>
					<g>
						<path class="st10" d="M1595.77,396.55c-1.42,0-2.58-1.15-2.58-2.58s1.15-2.58,2.58-2.58c1.42,0,2.58,1.15,2.58,2.58
							S1597.19,396.55,1595.77,396.55z"/>
					</g>
					<g>
						<path class="st10" d="M1619.24,396.55c1.42,0,2.58-1.15,2.58-2.58s-1.15-2.58-2.58-2.58c-1.42,0-2.58,1.15-2.58,2.58
							S1617.82,396.55,1619.24,396.55z"/>
					</g>
				</g>
			</g>
			<g class="st14">
				<g>
					<polyline class="st66" points="1621.93,349.73 1666.17,349.73 1685.61,376.96 1724.02,376.96 					"/>
					<g>
						<path class="st10" d="M1621.93,352.31c-1.42,0-2.58-1.15-2.58-2.58s1.15-2.58,2.58-2.58c1.42,0,2.58,1.15,2.58,2.58
							S1623.36,352.31,1621.93,352.31z"/>
					</g>
					<g>
						<path class="st10" d="M1724.02,379.54c1.42,0,2.58-1.15,2.58-2.58c0-1.42-1.15-2.58-2.58-2.58s-2.58,1.15-2.58,2.58
							C1721.44,378.38,1722.59,379.54,1724.02,379.54z"/>
					</g>
				</g>
			</g>
			<g class="st14">
				<g>
					<polyline class="st66" points="1615.15,358.15 1661.45,358.15 1680.9,385.38 1717.24,385.38 					"/>
					<g>
						<circle class="st10" cx="1615.15" cy="358.15" r="2.58"/>
					</g>
					<g>
						<path class="st10" d="M1717.24,387.95c1.42,0,2.58-1.15,2.58-2.58c0-1.42-1.15-2.58-2.58-2.58s-2.58,1.15-2.58,2.58
							C1714.66,386.8,1715.81,387.95,1717.24,387.95z"/>
					</g>
				</g>
			</g>
			<g class="st14">
				<g>
					<polyline class="st66" points="1610.2,366.99 1656.51,366.99 1669.41,385.21 					"/>
					<g>
						<path class="st10" d="M1610.2,369.57c-1.42,0-2.58-1.15-2.58-2.58c0-1.42,1.15-2.58,2.58-2.58c1.42,0,2.58,1.15,2.58,2.58
							C1612.78,368.41,1611.63,369.57,1610.2,369.57z"/>
					</g>
					<g>
						<path class="st10" d="M1667.31,386.7c0.82,1.16,2.43,1.44,3.59,0.61c1.16-0.82,1.44-2.43,0.61-3.59
							c-0.82-1.16-2.43-1.44-3.59-0.61C1666.76,383.93,1666.48,385.54,1667.31,386.7z"/>
					</g>
				</g>
			</g>
			<g class="st14">
				<g>
					<polyline class="st66" points="1596.2,402.53 1623.08,402.53 1639.87,418.36 					"/>
					<g>
						<path class="st10" d="M1596.2,405.1c-1.42,0-2.58-1.15-2.58-2.58c0-1.42,1.15-2.58,2.58-2.58s2.58,1.15,2.58,2.58
							C1598.78,403.95,1597.62,405.1,1596.2,405.1z"/>
					</g>
					<g>
						<path class="st10" d="M1638.11,420.24c1.04,0.98,2.67,0.93,3.64-0.11c0.98-1.04,0.93-2.67-0.11-3.64
							c-1.04-0.98-2.67-0.93-3.64,0.11C1637.02,417.63,1637.07,419.26,1638.11,420.24z"/>
					</g>
				</g>
			</g>
			<g class="st14">
				<g>
					<polyline class="st66" points="1595.81,410.33 1617.23,410.33 1628.41,419.68 					"/>
					<g>
						<path class="st10" d="M1595.81,412.9c-1.42,0-2.58-1.15-2.58-2.58c0-1.42,1.15-2.58,2.58-2.58c1.42,0,2.58,1.15,2.58,2.58
							C1598.38,411.75,1597.23,412.9,1595.81,412.9z"/>
					</g>
					<g>
						<path class="st10" d="M1626.75,421.66c1.09,0.91,2.72,0.77,3.63-0.32c0.91-1.09,0.77-2.72-0.32-3.63
							c-1.09-0.91-2.72-0.77-3.63,0.32C1625.51,419.12,1625.66,420.74,1626.75,421.66z"/>
					</g>
				</g>
			</g>
			<g class="st14">
				<g>
					<polyline class="st66" points="1642.53,398.18 1733.21,398.18 1754.41,426.44 1754.41,472.7 					"/>
					<g>
						<path class="st10" d="M1642.53,400.76c-1.42,0-2.58-1.15-2.58-2.58c0-1.42,1.15-2.58,2.58-2.58c1.42,0,2.58,1.15,2.58,2.58
							C1645.11,399.6,1643.96,400.76,1642.53,400.76z"/>
					</g>
					<g>
						<path class="st10" d="M1751.83,472.7c0,1.42,1.15,2.58,2.58,2.58c1.42,0,2.58-1.15,2.58-2.58s-1.15-2.58-2.58-2.58
							C1752.99,470.12,1751.83,471.27,1751.83,472.7z"/>
					</g>
				</g>
			</g>
			<g class="st14">
				<g>
					<polyline class="st66" points="1595.97,317.01 1760.42,317.01 1760.42,334.76 1802.15,391.14 					"/>
					<g>
						<circle class="st10" cx="1595.97" cy="317.01" r="2.58"/>
					</g>
					<g>
						<path class="st10" d="M1800.08,392.68c0.85,1.14,2.46,1.39,3.61,0.54c1.14-0.85,1.39-2.46,0.54-3.61
							c-0.85-1.14-2.46-1.39-3.61-0.54C1799.48,389.92,1799.23,391.53,1800.08,392.68z"/>
					</g>
				</g>
			</g>
			<g class="st14">
				<g>
					<polyline class="st66" points="1603.22,307.8 1739.58,307.8 1763.37,284.57 					"/>
					<g>
						<circle class="st10" cx="1603.22" cy="307.8" r="2.58"/>
					</g>
					<g>
						<path class="st10" d="M1765.17,286.41c1.02-0.99,1.04-2.63,0.04-3.65s-2.63-1.04-3.65-0.04s-1.04,2.63-0.04,3.65
							S1764.15,287.41,1765.17,286.41z"/>
					</g>
				</g>
			</g>
			<g class="st14">
				<g>
					<polyline class="st66" points="1611.07,300.18 1731.78,300.18 1750.8,281.74 					"/>
					<g>
						<path class="st10" d="M1611.07,302.76c-1.42,0-2.58-1.15-2.58-2.58c0-1.42,1.15-2.58,2.58-2.58c1.42,0,2.58,1.15,2.58,2.58
							C1613.65,301.6,1612.49,302.76,1611.07,302.76z"/>
					</g>
					<g>
						<path class="st10" d="M1752.59,283.59c1.02-0.99,1.05-2.62,0.06-3.65c-0.99-1.02-2.62-1.05-3.65-0.06
							c-1.02,0.99-1.05,2.62-0.06,3.65C1749.94,284.56,1751.57,284.58,1752.59,283.59z"/>
					</g>
				</g>
			</g>
			<g class="st14">
				<g>
					<line class="st66" x1="1771.98" y1="314.04" x2="1771.98" y2="329.28"/>
					<g>
						<path class="st10" d="M1769.4,314.04c0-1.42,1.15-2.58,2.58-2.58s2.58,1.15,2.58,2.58c0,1.42-1.15,2.58-2.58,2.58
							S1769.4,315.46,1769.4,314.04z"/>
					</g>
					<g>
						<circle class="st10" cx="1771.98" cy="329.28" r="2.58"/>
					</g>
				</g>
			</g>
			<g class="st14">
				<g>
					<line class="st66" x1="1779.99" y1="338.3" x2="1797.86" y2="361.21"/>
					<g>

							<ellipse transform="matrix(0.8061 -0.5918 0.5918 0.8061 144.912 1118.8972)" class="st10" cx="1779.99" cy="338.3" rx="2.58" ry="2.58"/>
					</g>
					<g>
						<path class="st10" d="M1795.83,362.79c0.88,1.12,2.5,1.32,3.62,0.45c1.12-0.88,1.32-2.5,0.45-3.62
							c-0.88-1.12-2.5-1.32-3.62-0.45S1794.95,361.67,1795.83,362.79z"/>
					</g>
				</g>
			</g>
			<g class="st14">
				<g>
					<polyline class="st66" points="1804.84,370.27 1813.99,381.89 1828.43,468.52 					"/>
					<g>
						<path class="st10" d="M1802.81,371.86c-0.88-1.12-0.69-2.74,0.43-3.62c1.12-0.88,2.74-0.69,3.62,0.43
							c0.88,1.12,0.69,2.74-0.43,3.62C1805.31,373.18,1803.69,372.98,1802.81,371.86z"/>
					</g>
					<g>
						<path class="st10" d="M1825.88,468.94c0.23,1.4,1.56,2.35,2.97,2.12c1.4-0.23,2.35-1.56,2.12-2.97
							c-0.23-1.4-1.56-2.35-2.97-2.12C1826.6,466.21,1825.65,467.54,1825.88,468.94z"/>
					</g>
				</g>
			</g>
			<g class="st14">
				<g>
					<polyline class="st66" points="1833.41,445.44 1837.84,469.48 1870.02,492.62 1870.02,521.84 					"/>
					<g>
						<path class="st10" d="M1830.87,445.91c-0.26-1.4,0.67-2.75,2.07-3c1.4-0.26,2.74,0.67,3,2.07c0.26,1.4-0.67,2.74-2.07,3
							S1831.13,447.31,1830.87,445.91z"/>
					</g>
					<g>
						<path class="st10" d="M1867.44,521.84c0,1.42,1.15,2.58,2.58,2.58c1.42,0,2.58-1.15,2.58-2.58s-1.15-2.58-2.58-2.58
							C1868.6,519.26,1867.44,520.41,1867.44,521.84z"/>
					</g>
				</g>
			</g>
			<g class="st14">
				<g>
					<line class="st66" x1="1640.73" y1="374.56" x2="1605.6" y2="374.56"/>
					<g>
						<circle class="st10" cx="1640.73" cy="374.56" r="2.58"/>
					</g>
					<g>
						<circle class="st10" cx="1605.6" cy="374.56" r="2.58"/>
					</g>
				</g>
			</g>
			<g class="st14">
				<g>
					<line class="st66" x1="1629.32" y1="397.09" x2="1644.04" y2="382.67"/>
					<g>
						<path class="st10" d="M1631.13,398.93c-1.02,1-2.65,0.98-3.65-0.04c-1-1.02-0.98-2.65,0.04-3.65c1.02-1,2.65-0.98,3.65,0.04
							C1632.16,396.3,1632.14,397.93,1631.13,398.93z"/>
					</g>
					<g>
						<path class="st10" d="M1645.84,384.51c1.02-1,1.03-2.63,0.04-3.65c-1-1.02-2.63-1.03-3.65-0.04c-1.02,1-1.03,2.63-0.04,3.65
							C1643.19,385.49,1644.83,385.51,1645.84,384.51z"/>
					</g>
				</g>
			</g>
			<g class="st14">
				<g>
					<line class="st66" x1="1684.63" y1="361.78" x2="1699.52" y2="347.56"/>
					<g>
						<path class="st10" d="M1686.42,363.65c-1.03,0.98-2.66,0.95-3.65-0.08s-0.95-2.66,0.08-3.65c1.03-0.98,2.66-0.95,3.65,0.08
							C1687.48,361.03,1687.44,362.66,1686.42,363.65z"/>
					</g>
					<g>
						<path class="st10" d="M1701.3,349.43c1.03-0.98,1.07-2.62,0.08-3.65c-0.98-1.03-2.62-1.07-3.65-0.08
							c-1.03,0.98-1.07,2.62-0.08,3.65S1700.27,350.41,1701.3,349.43z"/>
					</g>
				</g>
			</g>
			<g class="st14">
				<g>
					<line class="st66" x1="1690.63" y1="370.67" x2="1708.18" y2="353.56"/>
					<g>
						<path class="st10" d="M1692.43,372.51c-1.02,0.99-2.65,0.97-3.65-0.05s-0.97-2.65,0.05-3.65s2.65-0.97,3.65,0.05
							S1693.45,371.52,1692.43,372.51z"/>
					</g>
					<g>
						<path class="st10" d="M1709.98,355.41c1.02-0.99,1.04-2.63,0.05-3.65s-2.63-1.04-3.65-0.05s-1.04,2.63-0.05,3.65
							C1707.33,356.38,1708.96,356.4,1709.98,355.41z"/>
					</g>
				</g>
			</g>
			<g class="st14">
				<g>
					<line class="st66" x1="1705.77" y1="370.64" x2="1715.54" y2="361.31"/>
					<g>
						<path class="st10" d="M1707.55,372.5c-1.03,0.98-2.66,0.95-3.65-0.08c-0.98-1.03-0.94-2.66,0.08-3.65s2.66-0.94,3.65,0.08
							S1708.58,371.52,1707.55,372.5z"/>
					</g>
					<g>
						<path class="st10" d="M1717.32,363.17c1.03-0.98,1.07-2.62,0.08-3.65s-2.62-1.07-3.65-0.08c-1.03,0.98-1.07,2.62-0.08,3.65
							S1716.29,364.16,1717.32,363.17z"/>
					</g>
				</g>
			</g>
			<g class="st14">
				<g>
					<polyline class="st66" points="1722.8,327.65 1790.34,421.22 1790.34,515.5 1814.79,544.13 					"/>
					<g>
						<path class="st10" d="M1720.71,329.16c-0.83-1.15-0.57-2.77,0.58-3.6c1.15-0.83,2.77-0.57,3.6,0.58
							c0.83,1.15,0.57,2.77-0.58,3.6S1721.54,330.31,1720.71,329.16z"/>
					</g>
					<g>
						<path class="st10" d="M1812.83,545.8c0.92,1.08,2.55,1.21,3.63,0.29c1.08-0.92,1.21-2.55,0.29-3.64
							c-0.92-1.08-2.55-1.21-3.63-0.29S1811.91,544.72,1812.83,545.8z"/>
					</g>
				</g>
			</g>
			<g class="st14">
				<g>
					<line class="st66" x1="1588.28" y1="325.5" x2="1709.22" y2="325.5"/>
					<g>
						<circle class="st10" cx="1588.28" cy="325.5" r="2.58"/>
					</g>
					<g>
						<circle class="st10" cx="1709.22" cy="325.5" r="2.58"/>
					</g>
				</g>
			</g>
			<g class="st14">
				<g>
					<line class="st66" x1="1641.93" y1="406.38" x2="1674.25" y2="406.38"/>
					<g>
						<path class="st10" d="M1641.93,408.96c-1.42,0-2.58-1.15-2.58-2.58c0-1.42,1.15-2.58,2.58-2.58s2.58,1.15,2.58,2.58
							C1644.51,407.8,1643.35,408.96,1641.93,408.96z"/>
					</g>
					<g>
						<path class="st10" d="M1674.25,408.96c1.42,0,2.58-1.15,2.58-2.58c0-1.42-1.15-2.58-2.58-2.58s-2.58,1.15-2.58,2.58
							C1671.67,407.8,1672.83,408.96,1674.25,408.96z"/>
					</g>
				</g>
			</g>
			<g class="st14">
				<g>
					<line class="st66" x1="1685.23" y1="406.38" x2="1713.8" y2="482.04"/>
					<g>
						<path class="st10" d="M1682.82,407.29c-0.5-1.33,0.17-2.82,1.5-3.32c1.33-0.5,2.82,0.17,3.32,1.5s-0.17,2.82-1.5,3.32
							C1684.81,409.29,1683.32,408.62,1682.82,407.29z"/>
					</g>
					<g>
						<path class="st10" d="M1711.39,482.95c0.5,1.33,1.99,2,3.32,1.5c1.33-0.5,2-1.99,1.5-3.32c-0.5-1.33-1.99-2-3.32-1.5
							S1710.89,481.62,1711.39,482.95z"/>
					</g>
				</g>
			</g>
			<g class="st14">
				<g>
					<polyline class="st66" points="1695.99,406.38 1726.09,406.38 1744.37,429.41 1744.37,486.68 					"/>
					<g>
						<path class="st10" d="M1695.99,408.96c-1.42,0-2.58-1.15-2.58-2.58c0-1.42,1.15-2.58,2.58-2.58c1.42,0,2.58,1.15,2.58,2.58
							C1698.56,407.8,1697.41,408.96,1695.99,408.96z"/>
					</g>
					<g>
						<circle class="st10" cx="1744.37" cy="486.68" r="2.58"/>
					</g>
				</g>
			</g>
			<g class="st14">
				<g>
					<polyline class="st66" points="1701.58,425.89 1723.29,482.01 1678.45,593.91 					"/>
					<g>
						<path class="st10" d="M1699.18,426.82c-0.51-1.33,0.15-2.82,1.47-3.33c1.33-0.51,2.82,0.15,3.33,1.47s-0.15,2.82-1.47,3.33
							C1701.19,428.81,1699.69,428.15,1699.18,426.82z"/>
					</g>
				</g>
			</g>
			<g class="st14">
				<g>
					<line class="st66" x1="1763.4" y1="432.24" x2="1763.4" y2="556.95"/>
					<g>
						<path class="st10" d="M1760.82,432.24c0-1.42,1.15-2.58,2.58-2.58s2.58,1.15,2.58,2.58c0,1.42-1.15,2.58-2.58,2.58
							S1760.82,433.67,1760.82,432.24z"/>
					</g>
					<g>
						<circle class="st10" cx="1763.4" cy="556.95" r="2.58"/>
					</g>
				</g>
			</g>
			<g class="st14">
				<g>
					<polyline class="st66" points="1697.97,414.51 1719.17,414.51 1733.66,434.4 1733.66,606.2 					"/>
					<g>
						<circle class="st10" cx="1697.97" cy="414.51" r="2.58"/>
					</g>
				</g>
			</g>
			<g class="st14">
				<g>
					<line class="st66" x1="1711.8" y1="423.47" x2="1725.92" y2="455.37"/>
					<g>
						<path class="st10" d="M1709.45,424.52c-0.58-1.3,0.01-2.83,1.31-3.4c1.3-0.58,2.83,0.01,3.4,1.31c0.58,1.3-0.01,2.83-1.31,3.4
							C1711.55,426.41,1710.02,425.82,1709.45,424.52z"/>
					</g>
					<g>
						<path class="st10" d="M1723.57,456.41c0.58,1.3,2.1,1.89,3.4,1.31c1.3-0.58,1.89-2.1,1.31-3.4c-0.58-1.3-2.1-1.89-3.4-1.31
							C1723.58,453.59,1722.99,455.11,1723.57,456.41z"/>
					</g>
				</g>
			</g>
			<g class="st14">
				<g>
					<line class="st66" x1="1736.32" y1="326.97" x2="1751.23" y2="326.97"/>
					<g>
						<path class="st10" d="M1736.32,329.55c-1.42,0-2.58-1.15-2.58-2.58c0-1.42,1.15-2.58,2.58-2.58s2.58,1.15,2.58,2.58
							C1738.89,328.39,1737.74,329.55,1736.32,329.55z"/>
					</g>
					<g>
						<path class="st10" d="M1751.23,329.55c1.42,0,2.58-1.15,2.58-2.58c0-1.42-1.15-2.58-2.58-2.58s-2.58,1.15-2.58,2.58
							C1748.65,328.39,1749.8,329.55,1751.23,329.55z"/>
					</g>
				</g>
			</g>
			<g class="st14">
				<g>
					<polyline class="st66" points="1740.85,335.4 1799.52,419.02 1799.52,494.86 					"/>
					<g>
						<path class="st10" d="M1738.74,336.88c-0.82-1.17-0.54-2.77,0.63-3.59s2.77-0.54,3.59,0.63c0.82,1.17,0.54,2.77-0.63,3.59
							C1741.17,338.32,1739.56,338.04,1738.74,336.88z"/>
					</g>
					<g>
						<path class="st10" d="M1796.94,494.86c0,1.42,1.15,2.58,2.58,2.58c1.42,0,2.58-1.15,2.58-2.58s-1.15-2.58-2.58-2.58
							C1798.1,492.29,1796.94,493.44,1796.94,494.86z"/>
					</g>
				</g>
			</g>
			<g class="st14">
				<g>
					<polyline class="st66" points="1781.96,380.06 1808.55,416.13 1808.55,514.06 					"/>
					<g>
						<path class="st10" d="M1779.88,381.59c-0.84-1.15-0.6-2.76,0.55-3.6s2.76-0.6,3.6,0.55s0.6,2.76-0.55,3.6
							S1780.73,382.73,1779.88,381.59z"/>
					</g>
					<g>
						<circle class="st10" cx="1808.55" cy="514.06" r="2.58"/>
					</g>
				</g>
			</g>
			<g class="st14">
				<g>
					<line class="st66" x1="1816.5" y1="459.22" x2="1816.5" y2="440.03"/>
					<g>
						<path class="st10" d="M1819.08,459.22c0,1.42-1.15,2.58-2.58,2.58c-1.42,0-2.58-1.15-2.58-2.58s1.15-2.58,2.58-2.58
							C1817.92,456.64,1819.08,457.79,1819.08,459.22z"/>
					</g>
					<g>
						<path class="st10" d="M1819.08,440.03c0-1.42-1.15-2.58-2.58-2.58c-1.42,0-2.58,1.15-2.58,2.58s1.15,2.58,2.58,2.58
							C1817.92,442.61,1819.08,441.45,1819.08,440.03z"/>
					</g>
				</g>
			</g>
			<g class="st14">
				<g>
					<polyline class="st66" points="1663.37,203.25 1677.57,219.16 1802.87,219.16 					"/>
					<g>
						<path class="st10" d="M1661.44,204.97c-0.95-1.06-0.86-2.69,0.21-3.64s2.69-0.86,3.64,0.21c0.95,1.06,0.86,2.69-0.21,3.64
							C1664.02,206.12,1662.39,206.03,1661.44,204.97z"/>
					</g>
					<g>
						<path class="st10" d="M1802.87,221.74c1.42,0,2.58-1.15,2.58-2.58s-1.15-2.58-2.58-2.58c-1.42,0-2.58,1.15-2.58,2.58
							S1801.45,221.74,1802.87,221.74z"/>
					</g>
				</g>
			</g>
			<g class="st14">
				<g>
					<line class="st66" x1="1857.43" y1="289.09" x2="1810" y2="227.23"/>
					<g>
						<path class="st10" d="M1859.47,287.52c0.87,1.13,0.65,2.75-0.48,3.61s-2.75,0.65-3.61-0.48c-0.87-1.13-0.65-2.75,0.48-3.61
							C1856.99,286.17,1858.61,286.39,1859.47,287.52z"/>
					</g>
					<g>
						<path class="st10" d="M1812.04,225.66c-0.87-1.13-2.49-1.34-3.62-0.48c-1.13,0.87-1.34,2.48-0.48,3.61s2.49,1.34,3.61,0.48
							C1812.69,228.41,1812.91,226.79,1812.04,225.66z"/>
					</g>
				</g>
			</g>
			<g class="st14">
				<g>
					<line class="st66" x1="1834.59" y1="279.19" x2="1851.64" y2="302.73"/>
					<g>
						<path class="st10" d="M1832.5,280.7c-0.84-1.15-0.58-2.77,0.58-3.6c1.15-0.84,2.77-0.58,3.6,0.58
							c0.84,1.15,0.58,2.77-0.58,3.6C1834.95,282.11,1833.34,281.85,1832.5,280.7z"/>
					</g>
					<g>
						<path class="st10" d="M1849.56,304.24c0.84,1.15,2.45,1.41,3.6,0.58c1.15-0.84,1.41-2.45,0.58-3.6
							c-0.84-1.15-2.45-1.41-3.6-0.58C1848.98,301.47,1848.72,303.09,1849.56,304.24z"/>
					</g>
				</g>
			</g>
			<g class="st14">
				<g>
					<polyline class="st66" points="1671.26,180.01 1685.46,180.01 1716.73,211.29 1810.08,211.29 1861.33,279.85 					"/>
					<g>
						<circle class="st10" cx="1671.26" cy="180.01" r="2.58"/>
					</g>
					<g>
						<path class="st10" d="M1859.26,281.4c0.85,1.14,2.47,1.37,3.61,0.52c1.14-0.85,1.37-2.47,0.52-3.61
							c-0.85-1.14-2.47-1.37-3.61-0.52C1858.64,278.64,1858.41,280.26,1859.26,281.4z"/>
					</g>
				</g>
			</g>
			<g class="st14">
				<g>
					<polyline class="st66" points="1683.05,169.45 1818.47,169.45 1844.21,143.92 					"/>
					<g>
						<path class="st10" d="M1683.05,172.03c-1.42,0-2.58-1.15-2.58-2.58s1.15-2.58,2.58-2.58c1.42,0,2.58,1.15,2.58,2.58
							S1684.47,172.03,1683.05,172.03z"/>
					</g>
					<g>
						<path class="st10" d="M1846.02,145.75c1.01-1,1.02-2.64,0.01-3.65c-1-1.01-2.64-1.02-3.65-0.01c-1.01,1-1.02,2.64-0.01,3.65
							S1845.01,146.75,1846.02,145.75z"/>
					</g>
				</g>
			</g>
			<g class="st14">
				<g>
					<polyline class="st66" points="1670.17,126.6 1769.97,126.6 1803.03,141.49 					"/>
					<g>
						<path class="st10" d="M1670.17,129.18c-1.42,0-2.58-1.15-2.58-2.58c0-1.42,1.15-2.58,2.58-2.58s2.58,1.15,2.58,2.58
							C1672.75,128.02,1671.59,129.18,1670.17,129.18z"/>
					</g>
					<g>
						<path class="st10" d="M1801.97,143.85c1.3,0.58,2.83,0.01,3.41-1.29c0.58-1.3,0.01-2.82-1.29-3.41
							c-1.3-0.58-2.83-0.01-3.41,1.29C1800.09,141.73,1800.67,143.26,1801.97,143.85z"/>
					</g>
				</g>
			</g>
			<g class="st14">
				<g>
					<polyline class="st66" points="1714.97,134.37 1765.64,134.37 1815.89,156.99 1839.08,134.6 					"/>
					<g>
						<circle class="st10" cx="1714.97" cy="134.37" r="2.58"/>
					</g>
					<g>
						<path class="st10" d="M1840.87,136.45c1.02-0.99,1.05-2.62,0.06-3.65c-0.99-1.02-2.62-1.05-3.65-0.06
							c-1.02,0.99-1.05,2.62-0.06,3.65C1838.21,137.42,1839.85,137.44,1840.87,136.45z"/>
					</g>
				</g>
			</g>
			<g class="st14">
				<g>
					<line class="st66" x1="1709.32" y1="142.57" x2="1761.78" y2="142.57"/>
					<g>
						<path class="st10" d="M1709.32,145.15c-1.42,0-2.58-1.15-2.58-2.58c0-1.42,1.15-2.58,2.58-2.58c1.42,0,2.58,1.15,2.58,2.58
							C1711.9,144,1710.74,145.15,1709.32,145.15z"/>
					</g>
					<g>
						<path class="st10" d="M1761.78,145.15c1.42,0,2.58-1.15,2.58-2.58c0-1.42-1.15-2.58-2.58-2.58s-2.58,1.15-2.58,2.58
							C1759.2,144,1760.35,145.15,1761.78,145.15z"/>
					</g>
				</g>
			</g>
			<g class="st14">
				<g>
					<line class="st66" x1="1705.39" y1="162.27" x2="1809.09" y2="162.27"/>
					<g>
						<path class="st10" d="M1705.39,164.85c-1.42,0-2.58-1.15-2.58-2.58c0-1.42,1.15-2.58,2.58-2.58s2.58,1.15,2.58,2.58
							C1707.96,163.69,1706.81,164.85,1705.39,164.85z"/>
					</g>
					<g>
						<path class="st10" d="M1809.09,164.85c1.42,0,2.58-1.15,2.58-2.58c0-1.42-1.15-2.58-2.58-2.58s-2.58,1.15-2.58,2.58
							C1806.51,163.69,1807.66,164.85,1809.09,164.85z"/>
					</g>
				</g>
			</g>
			<g class="st14">
				<g>
					<line class="st66" x1="1699.67" y1="153.12" x2="1781.25" y2="153.12"/>
					<g>
						<path class="st10" d="M1699.67,155.7c-1.42,0-2.58-1.15-2.58-2.58s1.15-2.58,2.58-2.58c1.42,0,2.58,1.15,2.58,2.58
							S1701.09,155.7,1699.67,155.7z"/>
					</g>
					<g>
						<path class="st10" d="M1781.25,155.7c1.42,0,2.58-1.15,2.58-2.58s-1.15-2.58-2.58-2.58c-1.42,0-2.58,1.15-2.58,2.58
							S1779.83,155.7,1781.25,155.7z"/>
					</g>
				</g>
			</g>
			<g class="st14">
				<g>
					<polyline class="st66" points="1699.33,177.56 1825.16,177.56 1849.52,153.42 					"/>
					<g>
						<circle class="st10" cx="1699.33" cy="177.56" r="2.58"/>
					</g>
					<g>
						<path class="st10" d="M1851.34,155.25c1.01-1,1.02-2.64,0.02-3.65c-1-1.01-2.63-1.02-3.65-0.02c-1.01,1-1.02,2.63-0.02,3.65
							C1848.69,156.24,1850.33,156.25,1851.34,155.25z"/>
					</g>
				</g>
			</g>
			<g class="st14">
				<g>
					<line class="st66" x1="1705.36" y1="185.15" x2="1723.06" y2="202.72"/>
					<g>
						<path class="st10" d="M1703.55,186.98c-1.01-1-1.02-2.64-0.01-3.65s2.64-1.02,3.65-0.01c1.01,1,1.02,2.64,0.01,3.65
							C1706.19,187.98,1704.56,187.98,1703.55,186.98z"/>
					</g>
					<g>
						<path class="st10" d="M1721.24,204.55c1.01,1,2.64,1,3.65-0.01c1-1.01,1-2.64-0.01-3.65c-1.01-1-2.64-1-3.65,0.01
							C1720.23,201.91,1720.23,203.54,1721.24,204.55z"/>
					</g>
				</g>
			</g>
			<g class="st14">
				<g>
					<line class="st66" x1="1720.18" y1="185.15" x2="1737.88" y2="202.72"/>
					<g>
						<path class="st10" d="M1718.37,186.98c-1.01-1-1.02-2.64-0.01-3.65c1-1.01,2.64-1.02,3.65-0.01c1.01,1,1.02,2.64,0.01,3.65
							C1721.01,187.98,1719.38,187.98,1718.37,186.98z"/>
					</g>
					<g>
						<path class="st10" d="M1736.07,204.55c1.01,1,2.64,1,3.65-0.01c1-1.01,1-2.64-0.01-3.65c-1.01-1-2.64-1-3.65,0.01
							S1735.06,203.54,1736.07,204.55z"/>
					</g>
				</g>
			</g>
			<g class="st14">
				<g>
					<polyline class="st66" points="1741.12,188.9 1829.65,188.9 1855.44,163.16 					"/>
					<g>
						<circle class="st10" cx="1741.12" cy="188.9" r="2.58"/>
					</g>
					<g>
						<path class="st10" d="M1857.26,164.99c1.01-1.01,1.01-2.64,0-3.65c-1.01-1.01-2.64-1.01-3.65,0c-1.01,1.01-1.01,2.64,0,3.65
							S1856.25,165.99,1857.26,164.99z"/>
					</g>
				</g>
			</g>
			<g class="st14">
				<g>
					<polyline class="st66" points="1745.98,203.43 1839.31,203.43 1865.76,237.09 					"/>
					<g>
						<path class="st10" d="M1745.98,206.01c-1.42,0-2.58-1.15-2.58-2.58c0-1.42,1.15-2.58,2.58-2.58s2.58,1.15,2.58,2.58
							C1748.56,204.85,1747.41,206.01,1745.98,206.01z"/>
					</g>
					<g>
						<path class="st10" d="M1863.73,238.68c0.88,1.12,2.5,1.31,3.62,0.43c1.12-0.88,1.31-2.5,0.43-3.62
							c-0.88-1.12-2.5-1.31-3.62-0.43C1863.05,235.94,1862.86,237.56,1863.73,238.68z"/>
					</g>
				</g>
			</g>
			<g class="st14">
				<g>
					<line class="st66" x1="1821.34" y1="211.61" x2="1864.48" y2="267.31"/>
					<g>
						<path class="st10" d="M1819.3,213.19c-0.87-1.13-0.67-2.75,0.46-3.62c1.13-0.87,2.75-0.67,3.62,0.46
							c0.87,1.13,0.67,2.75-0.46,3.62C1821.79,214.52,1820.17,214.31,1819.3,213.19z"/>
					</g>
					<g>
						<path class="st10" d="M1862.44,268.89c0.87,1.13,2.49,1.33,3.62,0.46c1.13-0.87,1.33-2.49,0.46-3.62
							c-0.87-1.13-2.49-1.33-3.62-0.46S1861.57,267.76,1862.44,268.89z"/>
					</g>
				</g>
			</g>
			<g class="st14">
				<g>
					<line class="st66" x1="1838.33" y1="218.61" x2="1854.82" y2="240.03"/>
					<g>
						<path class="st10" d="M1836.29,220.18c-0.87-1.13-0.66-2.75,0.47-3.62c1.13-0.87,2.75-0.66,3.62,0.47
							c0.87,1.13,0.66,2.75-0.47,3.62C1838.78,221.52,1837.16,221.31,1836.29,220.18z"/>
					</g>
					<g>
						<path class="st10" d="M1852.78,241.6c0.87,1.13,2.49,1.34,3.62,0.47c1.13-0.87,1.34-2.49,0.47-3.62
							c-0.87-1.13-2.49-1.34-3.62-0.47S1851.91,240.47,1852.78,241.6z"/>
					</g>
				</g>
			</g>
			<g class="st14">
				<g>
					<polyline class="st66" points="1800.05,195.76 1857.85,195.76 1868.46,185.05 					"/>
					<g>
						<circle class="st10" cx="1800.05" cy="195.76" r="2.58"/>
					</g>
					<g>
						<path class="st10" d="M1870.29,186.87c1-1.01,0.99-2.64-0.02-3.65c-1.01-1-2.64-0.99-3.65,0.02c-1,1.01-0.99,2.64,0.02,3.65
							C1867.66,187.89,1869.29,187.88,1870.29,186.87z"/>
					</g>
				</g>
			</g>
			<g class="st14">
				<g>
					<line class="st66" x1="1843.97" y1="188.38" x2="1861.03" y2="171.46"/>
					<g>
						<path class="st10" d="M1845.78,190.21c-1.01,1-2.64,1-3.65-0.02c-1-1.01-1-2.64,0.02-3.65c1.01-1,2.64-1,3.65,0.02
							C1846.8,187.58,1846.79,189.21,1845.78,190.21z"/>
					</g>
					<g>
						<path class="st10" d="M1862.84,173.29c1.01-1,1.02-2.64,0.02-3.65c-1-1.01-2.64-1.02-3.65-0.02c-1.01,1-1.02,2.64-0.02,3.65
							C1860.2,174.29,1861.83,174.29,1862.84,173.29z"/>
					</g>
				</g>
			</g>
			<g class="st14">
				<g>
					<line class="st66" x1="1848" y1="201.96" x2="1866.74" y2="225.1"/>
					<g>
						<path class="st10" d="M1846,203.59c-0.9-1.11-0.73-2.73,0.38-3.63c1.11-0.9,2.73-0.73,3.63,0.38c0.9,1.11,0.73,2.73-0.38,3.63
							S1846.89,204.69,1846,203.59z"/>
					</g>
					<g>
						<path class="st10" d="M1864.74,226.72c0.9,1.11,2.52,1.28,3.63,0.38s1.28-2.52,0.38-3.63c-0.9-1.11-2.52-1.28-3.63-0.38
							C1864.01,223.99,1863.84,225.62,1864.74,226.72z"/>
					</g>
				</g>
			</g>
			<g class="st14">
				<g>
					<line class="st66" x1="1859.1" y1="202.38" x2="1866.95" y2="212.12"/>
					<g>
						<path class="st10" d="M1857.09,204c-0.89-1.11-0.72-2.73,0.39-3.62c1.11-0.89,2.73-0.72,3.62,0.39
							c0.89,1.11,0.72,2.73-0.39,3.63S1857.99,205.11,1857.09,204z"/>
					</g>
					<g>
						<path class="st10" d="M1864.94,213.74c0.89,1.11,2.52,1.28,3.63,0.39c1.11-0.89,1.28-2.52,0.39-3.63
							c-0.89-1.11-2.52-1.28-3.63-0.39C1864.22,211.01,1864.05,212.63,1864.94,213.74z"/>
					</g>
				</g>
			</g>
			<g class="st14">
				<g>
					<polyline class="st66" points="1636.38,231.01 1652.67,250.03 1670.66,250.03 					"/>
					<g>
						<path class="st10" d="M1634.43,232.69c-0.93-1.08-0.8-2.71,0.28-3.64c1.08-0.93,2.71-0.8,3.64,0.28s0.8,2.71-0.28,3.64
							C1636.98,233.9,1635.35,233.77,1634.43,232.69z"/>
					</g>
					<g>
						<path class="st10" d="M1670.66,252.61c1.42,0,2.58-1.15,2.58-2.58s-1.15-2.58-2.58-2.58c-1.42,0-2.58,1.15-2.58,2.58
							S1669.24,252.61,1670.66,252.61z"/>
					</g>
				</g>
			</g>
			<g class="st14">
				<g>
					<polyline class="st66" points="1774.47,97.91 1831.55,122.49 1868.46,185.05 1864.17,273.46 1822.87,367.99 1835.31,436.7
						1876.51,469.32 1964.73,504.85 					"/>
					<g>
						<path class="st10" d="M1773.45,100.28c-1.31-0.56-1.91-2.08-1.35-3.39c0.56-1.31,2.08-1.91,3.39-1.35s1.91,2.08,1.35,3.39
							C1776.27,100.24,1774.75,100.84,1773.45,100.28z"/>
					</g>
					<g>
						<path class="st10" d="M1963.77,507.25c1.32,0.53,2.82-0.11,3.35-1.43c0.53-1.32-0.11-2.82-1.43-3.35
							c-1.32-0.53-2.82,0.11-3.35,1.43C1961.81,505.21,1962.45,506.71,1963.77,507.25z"/>
					</g>
				</g>
			</g>
			<g class="st14">
				<g>
					<line class="st66" x1="1604.7" y1="245.57" x2="1621.02" y2="264.78"/>
					<g>
						<path class="st10" d="M1602.74,247.24c-0.92-1.08-0.79-2.71,0.3-3.63c1.08-0.92,2.71-0.79,3.63,0.3
							c0.92,1.09,0.79,2.71-0.3,3.63C1605.29,248.46,1603.66,248.32,1602.74,247.24z"/>
					</g>
					<g>
						<path class="st10" d="M1619.06,266.45c0.92,1.08,2.55,1.22,3.63,0.3c1.08-0.92,1.22-2.55,0.3-3.63s-2.55-1.22-3.63-0.3
							C1618.27,263.74,1618.14,265.37,1619.06,266.45z"/>
					</g>
				</g>
			</g>
		</g>
	</g>
</g>
<g id="guides_lines" class="st73">
</g>
</svg>
