<?xml version="1.0" encoding="UTF-8" standalone="no"?>
<svg
   viewBox="0 0 269.91329 147.22206"
   width="269.9133"
   height="147.22206"
   xmlns="http://www.w3.org/2000/svg">
  <g
     id="logo"
     transform="translate(-81.7677,-81.765198)">
    <g
       id="g26">
      <g
         id="g22">
        <path
           d="m 95.6,198.659 6.8,-5.219 c -0.315,-0.466 -0.633,-0.929 -0.937,-1.4 a 61.808,61.808 0 0 1 -4.706,-8.814 60.169,60.169 0 0 1 -3.284,-9.412 64.852,64.852 0 0 1 -2.053,-19.728 63.693,63.693 0 0 1 13.556,-36.552 63.846,63.846 0 0 1 70.658,-21.259 63.7,63.7 0 0 1 28.366,19.188 l 9.111,-6.993 a 72.322,72.322 0 0 0 -13.4,-12.527 76.394,76.394 0 0 0 -9.831,-6.064 c -1.748,-0.812 -3.449,-1.729 -5.253,-2.414 l -2.68,-1.085 -2.736,-0.937 a 75.116,75.116 0 0 0 -45.44,-0.315 74.211,74.211 0 0 0 -37.01,26.089 76.061,76.061 0 0 0 -6.2,9.636 78.6,78.6 0 0 0 -4.627,10.473 73.579,73.579 0 0 0 8.333,65.434 c 0.433,0.64 0.878,1.271 1.333,1.899 z"
           style="fill:#f5ac00"
           id="path18" />
        <path
           d="m 199.071,207.17 a 70.656,70.656 0 0 1 -8.42,5.9 66.536,66.536 0 0 1 -58.789,4.343 61.158,61.158 0 0 1 -8.994,-4.539 64.584,64.584 0 0 1 -8.2,-5.821 70,70 0 0 1 -6.743,-6.507 l -6.643,5.1 a 72.469,72.469 0 0 0 71.9,20.907 71.43,71.43 0 0 0 36.688,-23.634 l -3.335,-2.859 a 74.342,74.342 0 0 1 -7.464,7.11 z"
           style="fill:#222222"
           id="path20" />
      </g>
      <path
         d="m 144.037,174.416 h 30.52 v 9.6 H 133.443 V 129.51 h 40.735 v 9.606 h -30.141 v 12.618 h 26.715 v 9.606 h -26.715 z m 146.037,-5.7 c 0,9.3 -7.268,15.307 -18.516,15.307 H 246.283 V 129.51 H 270.8 c 11.009,0 18.121,5.591 18.121,14.241 A 12.965,12.965 0 0 1 282.14,155.6 c 5.267,2.257 7.934,6.664 7.934,13.114 z m -33.348,-16.752 h 12.168 c 3.522,0 9.431,-0.869 9.431,-6.689 0,-4.02 -3.106,-6.233 -8.744,-6.233 h -12.855 z m 23.355,15.763 c 0,-3.27 -1.085,-6.613 -9.132,-6.613 h -14.223 v 13.379 h 14.908 c 5.841,-0.002 8.447,-2.088 8.447,-6.768 z m 71.6,-11.034 c 0,15.826 -12.063,27.762 -28.059,27.762 -15.914,0 -27.914,-11.871 -27.914,-27.613 0,-15.827 12.064,-27.763 28.062,-27.763 15.911,-0.002 27.91,11.869 27.91,27.612 z m -10.88,0.149 c 0,-10.306 -7.385,-18.078 -17.179,-18.078 -9.711,0 -17.034,7.707 -17.034,17.929 0,10.306 7.387,18.077 17.182,18.077 9.709,-0.002 17.03,-7.709 17.03,-17.93 z M 210.186,154.181 194.31,129.51 h -10.923 v 54.511 h 10.443 v -36.637 l 16.29,24.288 h 0.028 l 16.241,-24.447 v 36.8 h 10.594 V 129.51 H 226.06 Z"
         style="fill:#222222"
         id="path24" />
    </g>
  </g>
</svg>
